<svg version="1.1" viewBox="0 0 32 32" xmlns="http://www.w3.org/2000/svg" xmlns:xlink="http://www.w3.org/1999/xlink">
    <g id="add-user">
        <path d="M15.981,20.175c3.083,0,8.063-5.491,8.063-10.786S20.435,1,15.981,1
        S7.919,4.094,7.919,9.389S12.898,20.175,15.981,20.175z M10.65,9.053c0.286-0.16,0.559-0.337,0.818-0.528
        c1.278,1.725,4.526,2.468,4.526,2.468c-1.179-1.11-1.395-2.553-1.426-3.568c1.638,1.254,4.006,2.06,6.685,2.06
        c0.033,0,0.063-0.007,0.097-0.007c0.001,0.04,0.011,0.074,0.011,0.114c0,3.451-3.323,7.483-5.38,7.483s-5.379-4.032-5.379-7.483
        C10.603,9.402,10.636,9.233,10.65,9.053z M18.781,21.395l-0.036-0.036c-0.654,0.448-1.427,0.677-2.764,0.677
        c-2.537,0-3.059-0.801-4.558-2.426C7.812,20.443,5,22.727,5,25.999c0,3.993,4.917,3.994,10.981,3.994c0.23,0,0.455,0,0.682-0.001
        c-0.433-0.909-0.682-1.924-0.682-2.998C15.981,24.704,17.081,22.671,18.781,21.395z M26.981,24.994h-2v-2c0-0.553-0.447-1-1-1h-2
        c-0.553,0-1,0.447-1,1v2h-2c-0.553,0-1,0.447-1,1v2c0,0.553,0.447,1,1,1h2v2c0,0.553,0.447,1,1,1h2c0.553,0,1-0.447,1-1v-2h2
        c0.553,0,1-0.447,1-1v-2C27.981,25.441,27.534,24.994,26.981,24.994z"></path>
    </g>
</svg>
