<svg version="1.1" viewBox="0 0 32 32" xmlns="http://www.w3.org/2000/svg" xmlns:xlink="http://www.w3.org/1999/xlink">
    <g id="add-card">
    <path d="M26,15c0.695,0,1.366,0.105,2,0.294V9c0-1.656-1.343-3-3-3H3
        C1.343,6,0,7.344,0,9v12c0,1.657,1.343,3,3,3h16.294C19.104,23.366,19,22.695,19,22C19,18.134,22.134,15,26,15z M5.993,10.001
        c1.107,0,2.004,0.896,2.004,2.003s-0.896,2.003-2.004,2.003c-1.106,0-2.004-0.896-2.004-2.003S4.887,10.001,5.993,10.001z M7,20H5
        c-0.553,0-1-0.447-1-1c0-0.552,0.447-1,1-1h2c0.553,0,1,0.448,1,1C8,19.553,7.553,20,7,20z M8.992,13.728
        c0.596-0.347,1-0.985,1-1.724s-0.404-1.376-1-1.724c0.297-0.173,0.637-0.279,1.005-0.279c1.106,0,2.004,0.896,2.004,2.003
        s-0.897,2.003-2.004,2.003C9.629,14.007,9.289,13.9,8.992,13.728z M14,20h-2c-0.553,0-1-0.447-1-1c0-0.552,0.447-1,1-1h2
        c0.553,0,1,0.448,1,1C15,19.553,14.553,20,14,20z M30,20h-2v-2c0-0.552-0.447-1-1-1h-2c-0.553,0-1,0.448-1,1v2h-2
        c-0.553,0-1,0.448-1,1v2c0,0.553,0.447,1,1,1h2v2c0,0.553,0.447,1,1,1h2c0.553,0,1-0.447,1-1v-2h2c0.553,0,1-0.447,1-1v-2
        C31,20.448,30.553,20,30,20z"></path>
    </g>
</svg>
