<svg version="1.1" viewBox="0 0 32 32" xmlns="http://www.w3.org/2000/svg" xmlns:xlink="http://www.w3.org/1999/xlink">
    <g id="analytics">
        <path d="M29,4H3C1.343,4,0,5.343,0,7v18c0,1.657,1.343,3,3,3h26c1.657,0,3-1.343,3-3V7
        C32,5.343,30.657,4,29,4z M27,14.143c0,0.858-1.188,0.32-2.491-0.674L16.4,20.897l-3.901-3.5l-5.073,5.113
        c-0.307,0.355-0.736,0.517-1.153,0.478c-0.297-0.028-0.587-0.157-0.822-0.39c-0.568-0.561-0.604-1.508-0.08-2.115l7.151-7.465
        l3.932,3.672l5.882-5.231C21.201,10.184,20.624,9,21.857,9c3.084,0,4.285,0,4.285,0C26.616,9,27,9.384,27,9.857
        C27,9.857,27,11.884,27,14.143z"></path>
    </g>
</svg>
