<svg version="1.1" viewBox="0 0 32 32" xmlns="http://www.w3.org/2000/svg" xmlns:xlink="http://www.w3.org/1999/xlink">
    <g id="basket">
        <path d="M30,9h-4.457l1.838-0.992c1.705-0.974,1.094-2.095,0.322-3.255
        c-0.969-1.457-1.52-1.947-2.734-1.292l-9.982,5.21c-0.168,0.091-0.32,0.204-0.46,0.329H2c-1.657,0-2,1.343-2,3s0.343,3,2,3
        l2.733,11c0,1.656,1.164,2,2.601,2h17.332c1.437,0,2.601-0.344,2.601-2L30,15c1.656,0,2-1.343,2-3S31.656,9,30,9z M9.79,25.039
        c-0.465,0.014-0.919-0.137-1.047-0.662l-1.879-8.471c-0.216-0.881,0.198-0.813,0.835-0.832c0.639-0.019,1.465-0.122,1.625,0.759
        l1.414,8.486C10.834,24.846,10.256,25.025,9.79,25.039z M16.918,24.438C16.9,24.867,16.49,25,16.003,25s-0.896-0.133-0.914-0.562
        l-0.243-6.707c-0.029-0.721,0.488-0.654,1.157-0.654s1.188-0.066,1.158,0.654L16.918,24.438z M16,13.283
        c-0.709,0-1.283-0.575-1.283-1.284s0.574-1.284,1.283-1.284s1.283,0.575,1.283,1.284S16.709,13.283,16,13.283z M25.136,15.906
        l-1.879,8.471c-0.128,0.525-0.582,0.676-1.048,0.662c-0.465-0.014-1.043-0.193-0.947-0.719l1.414-8.486
        c0.16-0.881,0.986-0.778,1.625-0.759C24.938,15.093,25.352,15.025,25.136,15.906z"></path>
    </g>
</svg>
