<svg version="1.1" viewBox="0 0 32 32" xmlns="http://www.w3.org/2000/svg" xmlns:xlink="http://www.w3.org/1999/xlink">
    <g id="billings">
        <path d="M27.136,6.016h-2.187C24.549,3.107,22.036,1,18.987,1 c-2.738,0-5.045,1.7-5.778,4.153L9.227,4.053C8.809,3.937,8.379,4.19,8.268,4.619L3.026,24.795c-0.111,0.429,0.138,0.87,0.557,0.985l5.407,1.495v1.866c0,0.473,0.386,0.856,0.863,0.856h17.282c0.478,0,0.864-0.384,0.864-0.856
        V6.872C28,6.399,27.613,6.016,27.136,6.016z M8.99,24.521l-3.104-0.857L8.99,11.717V24.521z M12.86,12.008h2.245
        c0.482,0,0.873,0.451,0.873,1.007c0,0.556-0.391,1.006-0.873,1.006H12.86c-0.482,0-0.874-0.45-0.874-1.006
        C11.986,12.459,12.378,12.008,12.86,12.008z M18.104,22.006H12.86c-0.482,0-0.874-0.45-0.874-1.007s0.392-1.007,0.874-1.007h5.244
        c0.482,0,0.873,0.45,0.873,1.007S18.587,22.006,18.104,22.006z M18.193,18.014h-5.405c-0.442,0-0.802-0.45-0.802-1.006
        c0-0.557,0.359-1.008,0.802-1.008h5.405c0.442,0,0.802,0.451,0.802,1.008C18.995,17.563,18.636,18.014,18.193,18.014z
         M17.999,12.01c0-2.876,0-2.141,0-4.12c0-0.992,2-1.116,2,0c0,2.009,0,2.244,0,3.121c0,0.877,1,0.915,1,0c0-0.915,0-2.56,0-4.556
        c0-1.833-3.36-1.937-3.914-0.437h-2.023c0.3-1.926,2.091-2.976,3.907-3.027c2.011-0.058,4.029,1.093,4.029,3.589
        c0,4.967,0,2.58,0,5.431S17.999,14.888,17.999,12.01z M23.978,22.006h-0.993c-0.549,0-0.993-0.45-0.993-1.007
        s0.444-1.007,0.993-1.007h0.993c0.548,0,0.993,0.45,0.993,1.007S24.525,22.006,23.978,22.006z M23.978,18.014h-0.993
        c-0.549,0-0.993-0.45-0.993-1.006c0-0.557,0.444-1.008,0.993-1.008h0.993c0.548,0,0.993,0.451,0.993,1.008
        C24.971,17.563,24.525,18.014,23.978,18.014z"></path>
    </g>
</svg>
