<svg version="1.1" viewBox="0 0 32 32" xmlns="http://www.w3.org/2000/svg" xmlns:xlink="http://www.w3.org/1999/xlink">
    <g id="cards">
        <path d="M29,6H3C1.343,6,0,7.343,0,9v15c0,1.657,1.343,3,3,3h26c1.656,0,3-1.343,3-3V9
        C32,7.343,30.656,6,29,6z M8,22H6c-0.553,0-1-0.447-1-1s0.447-1,1-1h2c0.553,0,1,0.447,1,1S8.553,22,8,22z M7,14.989
        c-1.109,0-2.008-0.893-2.008-1.994S5.891,11,7,11c1.108,0,2.008,0.894,2.008,1.995S8.108,14.989,7,14.989z M9.994,14.715
        c0.596-0.345,1.002-0.981,1.002-1.72s-0.406-1.376-1.002-1.721c0.296-0.17,0.634-0.274,1-0.274c1.109,0,2.008,0.894,2.008,1.995
        s-0.898,1.994-2.008,1.994C10.628,14.989,10.29,14.885,9.994,14.715z M14,22h-2c-0.553,0-1-0.447-1-1s0.447-1,1-1h2
        c0.553,0,1,0.447,1,1S14.553,22,14,22z M20,22h-2c-0.553,0-1-0.447-1-1s0.447-1,1-1h2c0.553,0,1,0.447,1,1S20.553,22,20,22z
         M26,22h-2c-0.553,0-1-0.447-1-1s0.447-1,1-1h2c0.553,0,1,0.447,1,1S26.553,22,26,22z"></path>
    </g>
</svg>
