<svg version="1.1" viewBox="0 0 32 32" xmlns="http://www.w3.org/2000/svg" xmlns:xlink="http://www.w3.org/1999/xlink">
    <g id="dashboard">
        <path d="M16,31C7.716,31,1,24.284,1,16.001C1,7.716,7.716,1,16,1s15,6.716,15,15.001
        C31,24.284,24.284,31,16,31z M16,4.453c-6.377,0-11.546,5.17-11.546,11.548c0,2.261,0.659,4.363,1.783,6.146
        c0.916-0.901,1.959-1.673,3.095-2.295l4.548,6.28c0.871,1.202,2.551,1.471,3.753,0.601c1.202-0.871,1.471-2.552,0.601-3.754
        l-3.456-4.772c0.404-0.035,0.811-0.062,1.223-0.062c3.805,0,7.249,1.529,9.763,4.002c1.124-1.781,1.784-3.885,1.784-6.146
        C27.547,9.623,22.377,4.453,16,4.453z M22.995,14.587c-0.887,0-1.606-0.719-1.606-1.607c0-0.887,0.72-1.606,1.606-1.606
        c0.888,0,1.607,0.719,1.607,1.606C24.603,13.868,23.883,14.587,22.995,14.587z M19,10.567c-0.889,0-1.608-0.719-1.608-1.607
        c0-0.887,0.72-1.606,1.608-1.606c0.887,0,1.606,0.719,1.606,1.606C20.606,9.848,19.887,10.567,19,10.567z M12.991,10.567
        c-0.887,0-1.606-0.719-1.606-1.607c0-0.887,0.72-1.606,1.606-1.606c0.888,0,1.607,0.719,1.607,1.606
        C14.599,9.848,13.879,10.567,12.991,10.567z M16.991,24.104c0.351,0.499,0.229,1.187-0.269,1.536
        c-0.499,0.351-1.186,0.229-1.536-0.269l-5.068-7.221c-0.349-0.499-0.229-1.187,0.271-1.536c0.497-0.351,1.186-0.229,1.535,0.269
        L16.991,24.104z M8.973,14.587c-0.887,0-1.606-0.719-1.606-1.607c0-0.887,0.72-1.606,1.606-1.606c0.888,0,1.607,0.719,1.607,1.606
        C10.58,13.868,9.86,14.587,8.973,14.587z"></path>
    </g>
</svg>
