<svg version="1.1" viewBox="0 0 32 32" xmlns="http://www.w3.org/2000/svg" xmlns:xlink="http://www.w3.org/1999/xlink">
    <g id="download">
        <path d="M28.6,19H25.4c-0.221,0-0.4,0.179-0.4,0.4V25H7v-5.6C7,19.179,6.821,19,6.6,19
        H3.4C3.179,19,3,19.179,3,19.4V25c0,2.209,1.791,4,4,4h18c2.209,0,4-1.791,4-4v-5.6C29,19.179,28.82,19,28.6,19z M11.827,17.308
        c1.255,1.573,2.726,2.879,3.299,3.367C15.381,20.892,15.689,21,15.999,21c0.309,0,0.618-0.108,0.872-0.324
        c0.715-0.605,2.093-1.849,3.299-3.361c1.318-1.653,2.363-3.591,2.652-4.146c0.236-0.453,0.228-1.005-0.022-1.45
        C22.549,11.273,22.095,11,21.604,11h-1.601V6.004C20.003,4.897,19.107,4,18.002,4h-4.004c-1.105,0-2.001,0.897-2.001,2.004V11
        h-1.601c-0.49,0-0.945,0.272-1.195,0.718c-0.25,0.444-0.26,0.996-0.023,1.449C9.462,13.716,10.494,15.636,11.827,17.308z"></path>
   </g>
</svg>
