<svg version="1.1" viewBox="0 0 32 32" xmlns="http://www.w3.org/2000/svg" xmlns:xlink="http://www.w3.org/1999/xlink">
    <g id="edit">
        <path d="M28.755,3.311c-4.186-4.188-6.375-1.539-7.057-0.857
        c-0.002,0.002-0.002,0.006-0.004,0.008L5,19.176c-0.255,0.283-0.425,0.547-0.596,0.986l-1.541,4.436L2,28.676
        c0.007-0.002,0.013,0,0.02,0c-0.033,0.391,0.079,0.779,0.362,1.066c0.282,0.285,0.667,0.396,1.054,0.363c0,0.006,0,0.014,0,0.02
        l3.813-0.814l3.957-1.35c0.846-0.309,1.872-0.986,2.348-1.471c0.003-0.004,0.008-0.006,0.011-0.008l11.551-11.574
        c0.018-0.012,0.045-0.012,0.06-0.027c0.015-0.014,0.015-0.043,0.027-0.059l2.417-2.422c0.025-0.02,0.061-0.025,0.083-0.047
        c0.022-0.022,0.027-0.059,0.047-0.083l1.844-1.847c0.013-0.011,0.033-0.011,0.045-0.023C30.317,9.718,32.94,7.5,28.755,3.311z
         M11.212,26.246c-1.691,0.715-4.626,1.672-4.626,1.672l-2.299-2.301c0,0,0.868-2.846,1.588-4.553
        c0.442-1.047,0.878-1.287,0.878-1.287c1,0.469,2.185,1.283,3.24,2.338c1.105,1.105,1.938,2.334,2.396,3.35
        C12.388,25.465,11.89,25.959,11.212,26.246z M10.751,19.191c0,0-0.461-0.348-0.928-0.617c-0.449-0.26-0.903-0.441-0.903-0.441
        L20.96,6.092c0,0,0.43,0.1,0.82,0.359c0.469,0.312,0.915,0.795,0.915,0.795L10.751,19.191z M28.807,8.35l-0.005,0.005
        c-0.007,0.007-0.009,0.019-0.016,0.025s-0.018,0.009-0.025,0.016l-1.397,1.405c-0.48-0.897-1.224-1.9-2.188-2.866
        c-0.967-0.966-1.971-1.709-2.868-2.19l1.431-1.433l0.004,0.004c0.605-0.583,2.212,0.063,3.6,1.452
        C28.717,6.144,29.36,7.73,28.807,8.35L28.807,8.35z"></path>
    </g>
</svg>
