<svg version="1.1" viewBox="0 0 32 32" xmlns="http://www.w3.org/2000/svg" xmlns:xlink="http://www.w3.org/1999/xlink">
    <g id="environment">
<path d="M7.007,12.59c1.847,0,4.831-3.363,4.831-6.606S9.675,0.846,7.007,0.846
			S2.176,2.74,2.176,5.983S5.16,12.59,7.007,12.59z M7.007,11.269c-0.719,0-1.302-0.658-1.302-1.013
			c0-0.355,0.583-0.188,1.302-0.188S8.309,9.9,8.309,10.256C8.309,10.61,7.726,11.269,7.007,11.269z M3.741,6.043
			c0-0.076,0.015-0.142,0.018-0.216c0.748-0.403,1.352-1.011,1.784-1.73c0.891,1.133,2.566,1.908,4.514,1.908
			c0.072,0,0.14-0.014,0.212-0.016c0,0.019,0.004,0.035,0.004,0.054c0,0.745-0.237,1.508-0.585,2.202
			c-0.711,0.317-1.68,0.85-2.643,0.85c-0.992,0-1.984-0.525-2.698-0.805C3.987,7.585,3.741,6.805,3.741,6.043z M8.767,15.873
			c0-0.908,0.146-1.72,0.356-2.481c-0.722,0.572-1.489,0.764-2.116,0.764c-0.737,0-1.674-0.229-2.493-1.079
			C2.538,13.513,1,14.202,1,15.913C1,18,3.689,18,7.007,18c0.717,0,1.394-0.004,2.031-0.024C8.869,17.281,8.767,16.576,8.767,15.873
			z M16.007,23.985c2.154,0,5.635-3.923,5.635-7.706c0-3.782-2.522-5.993-5.635-5.993s-5.635,2.211-5.635,5.993
			C10.372,20.062,13.853,23.985,16.007,23.985z M12.281,15.953c0.817-0.483,1.477-1.174,1.959-1.982
			c1.076,1.368,3.101,2.303,5.451,2.303c0.023,0,0.045-0.004,0.068-0.005c0,0.03,0.007,0.056,0.007,0.085
			c0,2.563-2.322,5.373-3.76,5.373s-3.76-2.81-3.76-5.373C12.247,16.213,12.271,16.088,12.281,15.953z M19.186,24.021
			c-1.046,1.157-1.409,1.972-3.179,1.972c-1.773,0-2.138-0.817-3.186-1.978c-2.524,0.596-4.489,1.794-4.489,4.132
			C8.332,31,11.769,31,16.007,31s7.675,0,7.675-2.854C23.682,25.815,21.71,24.62,19.186,24.021z M20.912,11.164l1.744,0.18
			c0.798,0.769,1.655,1.246,2.351,1.246s1.553-0.478,2.351-1.246l3.649-0.376c0,0-0.698-3.659-1.259-6.04
			c-0.03-0.188-0.083-0.359-0.13-0.535c-0.065-0.265-0.129-0.511-0.188-0.715c-0.007-0.024-0.015-0.004-0.023,0.034
			c-0.756-1.834-2.438-2.866-4.4-2.866s-3.645,1.032-4.4,2.866c-0.009-0.038-0.017-0.059-0.023-0.034
			c-0.059,0.204-0.122,0.45-0.188,0.715c-0.047,0.176-0.1,0.347-0.13,0.535c-0.335,1.424-0.717,3.292-0.972,4.574
			C19.917,9.95,20.464,10.506,20.912,11.164z M21.893,4.938c0.856,0.747,1.93,1.213,3.114,1.213c1.184,0,2.258-0.466,3.114-1.213
			c0.089,0.341,0.151,0.702,0.151,1.105c0,2.227-2.017,4.667-3.266,4.667s-3.266-2.44-3.266-4.667
			C21.741,5.64,21.804,5.278,21.893,4.938z M27.495,13.081c-0.818,0.847-1.752,1.074-2.488,1.074c-0.613,0-1.362-0.183-2.069-0.726
			c0.199,0.745,0.31,1.56,0.31,2.443c0,0.703-0.103,1.408-0.271,2.103C23.613,17.996,24.29,18,25.007,18
			c3.317,0,6.007,0,6.007-2.087C31.014,14.207,29.471,13.52,27.495,13.081z"></path>
    </g>
</svg>
