<svg version="1.1" viewBox="0 0 32 32" xmlns="http://www.w3.org/2000/svg" xmlns:xlink="http://www.w3.org/1999/xlink">
    <g id="exit">
        <path d="M29,1H12c-1.656,0-3,1.343-3,3v7.149c-1.846,1.131-3.48,2.929-3.74,4.46
        c-0.238,1.412-0.115,3.466,1.807,3.429c0.582-0.012,1.816-0.119,1.711,0.346C8.652,19.945,7.1,22.09,7.1,22.09l-3.944-1.449
        c0,0-2.413,0.08-1.018,3.284C3.05,26.022,5.002,28.976,9,28.907V29c0,1.656,1.344,3,3,3h14V5.647L12,4h14l3.014-0.002v28.001
        C30.664,31.991,32,30.651,32,29V4C32,2.343,30.656,1,29,1z M7.564,26.785c-1.824-0.559-4.212-3.739-4.212-3.739l0.457-0.706
        l3.438,2.488l2.061-2.46c0,0-0.145,1.054,0.576,1.716c0.809,0.744,1.41,1.045,1.41,1.045S8.297,27.01,7.564,26.785z M15.545,8.913
        c0.289-1.306,1.561-2.143,2.838-1.868s2.076,1.556,1.787,2.863c-0.291,1.306-1.561,2.143-2.838,1.868
        C16.055,11.501,15.254,10.219,15.545,8.913z M16.66,13.163l2.701,3.638l4.248-1.852l0.238,1.326c0,0-3.1,2.72-4.77,2.44
        c-1.271-0.213-3.201-1.746-3.201-1.746s-0.84,1.875-1.479,2.645c-0.621,0.748-1.355,1.52-1.355,1.52s3.748,2.18,4.307,3.619
        s-1.441,6.354-1.441,6.354l-1.043,0.806l0.096-6.377c0,0-2.578-1.323-3.666-2.318c-2.92-2.675,0.729-6.639,2.697-8.346
        C15.627,13.451,16.66,13.163,16.66,13.163z M13.627,12.908l-2.139,2.362l-1.174-0.125l-3.025,2.199l-0.346-0.84
        c0,0,0.848-1.865,2.947-3.075C11.902,12.271,13.627,12.908,13.627,12.908z"></path>
   </g>
</svg>
