<svg version="1.1" viewBox="0 0 32 32" xmlns="http://www.w3.org/2000/svg" xmlns:xlink="http://www.w3.org/1999/xlink">
    <g id="eye-open">
        <path d="M24.43,19.551c-1.906,1.229-4.693,2.469-8.423,2.474
        c-3.476-0.005-6.105-1.079-7.965-2.218c-2.327-1.489-4.125,1.116-2.535,2.379c2.358,1.463,5.215,3.812,10.404,3.825
        c5.188-0.013,8.239-2.362,10.596-3.825C27.992,21.005,26.658,18.501,24.43,19.551z M31.268,7.307
        c-0.799-0.533-1.914-0.361-2.486,0.383l-0.49,0.637c-0.832-0.695-1.828-1.373-3.002-1.962l0.576-1.207
        c0.381-0.795-0.059-1.707-0.98-2.035s-1.979,0.051-2.359,0.847l-0.557,1.162c-1.193-0.316-2.502-0.548-3.963-0.634V3
        c0-1.104-0.896-2-2-2c-1.104,0-2,0.896-2,2v1.497c-1.468,0.087-2.78,0.32-3.979,0.639L9.469,3.969
        C9.088,3.173,8.032,2.794,7.11,3.122C6.188,3.45,5.749,4.362,6.129,5.157l0.58,1.213C5.542,6.958,4.551,7.634,3.722,8.326
        l-0.49-0.636C2.658,6.945,1.545,6.773,0.745,7.307S-0.24,8.875,0.333,9.619l1.032,1.339c-0.783,2.103,2.151,3.533,3.529,1.88
        c0.081-0.098,0.145-0.149,0.199-0.178c2.171-2.45,5.641-4.807,10.913-4.695c5.271-0.111,8.742,2.245,10.914,4.695
        c0.053,0.028,0.117,0.08,0.197,0.178c1.379,1.652,4.312,0.223,3.531-1.88l1.031-1.339C32.252,8.875,32.068,7.84,31.268,7.307z
         M10.006,15.001c0,3.313,2.687,6,6,6c3.314,0,6-2.687,6-6c0-1.216-0.363-2.346-0.986-3.291l-5.013,3.291v-6
        C12.693,9.001,10.006,11.688,10.006,15.001z"></path>
   </g>
</svg>
