<svg version="1.1" viewBox="0 0 32 32" xmlns="http://www.w3.org/2000/svg" xmlns:xlink="http://www.w3.org/1999/xlink">
    <g id="globe">
        <path d="M16,1C7.717,1,1,7.716,1,16.001s6.717,15,15,15c8.282,0,15-6.715,15-15
        S24.282,1,16,1z M5.738,9.97c0.72,0.1,1.458-0.085,2.07,1.153c0.311,0.641,0.937,1.342,1.33,1.723
        c0.201,0.195,0.359,0.32,0.474,0.377c0.057,0.028,0.105,0.04,0.141,0.034c0.035-0.007,0.061-0.03,0.068-0.074
        c0.178-0.28,0.246-1.925-0.436-2.767c-0.618-0.8-0.565-1.529-0.56-1.526c0.076,0.055,1.071-0.181,1.265-1.546
        c0.109-0.528,0.29-0.904,0.461-1.202c0.541,0.051,1.103,0.021,1.46-0.134c1.071-0.464,2.037-1.147,1.926-1.781
        c0.714-0.133,1.45-0.208,2.202-0.208c0.481,0,0.953,0.04,1.418,0.096c0.17,0.022,0.338,0.048,0.504,0.077
        c0.241,0.04,0.477,0.092,0.712,0.146c1.158,0.275,2.25,0.716,3.252,1.3c-0.161-0.016-0.323,0.001-0.498,0.121
        c-1.083,0.752-1.693-0.125-1.962,0.877c-0.273,1.001,0.167,2.098,0.167,2.098l-2.097,0.03c-1.42,0.657-0.677,2.787-0.677,2.787
        s2.301,0.782,3.655,0.03c1.354-0.751,2.2-2.097,2.2-2.097l2.505,2.849c0.913,0.47,1.285-1.347,1.285-1.347
        c-0.416-0.597-0.51-1.05-0.477-1.397c0.771,1.217,1.338,2.576,1.632,4.037l-0.343,0.115c0,0-0.894,1.208-3.869,0.383
        c-2.975-0.825-5.92-0.537-6.018,0.97c-0.093,1.47-1.917-0.323-1.396,2.864c0,0-0.151,4.275,2.796,4.293
        c1.592,0.008,1.057-0.83,1.398-1.432c1.651,0.695,2.29,3.178,2.539,5.014c-1.947,1.363-4.312,2.17-6.87,2.17
        c-2.145,0-4.153-0.569-5.895-1.554l-0.098-1.163c0,0,0.316-0.672,0.843-1.055c0.527-0.385,0.741-0.672,1.162-1.439
        c0.422-0.768,1.416-1.918,1.522-2.396c0.105-0.48,1.582-1.92,0.738-2.688c-0.845-0.766-2.321-0.861-3.059-1.055
        c-0.738-0.191-3.105-0.863-3.315-1.63c-0.211-0.768-2.006-0.479-2.638-0.191c-0.255,0.116-0.735,0.337-1.229,0.519
        c0.096-1.777,0.568-3.452,1.354-4.941C5.522,10.267,5.647,10.122,5.738,9.97z"></path>
   </g>
</svg>
