<svg version="1.1" viewBox="0 0 32 32" xmlns="http://www.w3.org/2000/svg" xmlns:xlink="http://www.w3.org/1999/xlink">
    <g id="info">
        <path d="M16,2C8.269,2,2,8.268,2,16c0,7.732,6.269,14,14,14c7.732,0,14-6.268,14-14
        C30,8.268,23.732,2,16,2z M17.273,23c-0.068,0.553-0.601,1-1.191,1H13.95c-0.589,0-1.011-0.447-0.942-1l0.998-8
        c0.069-0.553,0.603-1,1.191-1h2.133c0.59,0,1.012,0.447,0.941,1L17.273,23z M18.755,11c-0.068,0.553-0.602,1-1.191,1h-2.133
        c-0.589,0-1.011-0.447-0.942-1l0.25-2c0.068-0.552,0.602-1,1.191-1h2.133c0.59,0,1.011,0.448,0.942,1L18.755,11z"></path>
   </g>
</svg>
