<svg version="1.1" viewBox="0 0 32 32" xmlns="http://www.w3.org/2000/svg" xmlns:xlink="http://www.w3.org/1999/xlink">
    <g id="link">
        <g>
            <path d="M16.414,19.586L10,26l-4-4l6.414-6.414l-2-2C10.023,13.195,9.512,13,9,13s-1.023,0.195-1.414,0.586l-7,7C0.195,20.976,0,21.488,0,22s0.195,1.024,0.586,1.414l8,8C8.977,31.805,9.488,32,10,32s1.023-0.195,1.414-0.586l7-7C18.805,24.024,19,23.512,19,23c0-0.512-0.195-1.024-0.586-1.415L16.414,19.586z"></path>
            <path d="M31.414,8.586l-8-8C23.023,0.195,22.512,0,22,0s-1.023,0.195-1.414,0.586l-7,7C13.195,7.976,13,8.488,13,9s0.195,1.023,0.586,1.414l2,2L22,6l4,4l-6.414,6.414l2,2C21.977,18.805,22.488,19,23,19s1.023-0.195,1.414-0.586l7-7C31.805,11.024,32,10.512,32,10C32,9.488,31.805,8.977,31.414,8.586z"></path>
        </g>
    </g>
</svg>
