<svg version="1.1" viewBox="0 0 32 32" xmlns="http://www.w3.org/2000/svg" xmlns:xlink="http://www.w3.org/1999/xlink">
    <g id="messages">
        <path d="M27.51,6.241C26.041,4.945,21.449,4,16.003,4c-5.394,0-9.956,0.927-11.47,2.204
        C3.072,7.318,2,10.888,2,14.998c0,4.098,1.065,7.659,2.52,8.785c0.646,0.553,1.864,1.039,3.472,1.415l0.011,2.385
        c0.058,1.115,1.07,1.702,2.851,0.672c0.088-0.051,0.169-0.083,0.247-0.107l3.615-2.168c0.424,0.012,0.852,0.02,1.287,0.02
        c5.464,0,10.066-0.952,11.521-2.253c1.434-1.171,2.476-4.7,2.476-8.748C30,10.938,28.951,7.401,27.51,6.241z M20.043,18.004H8.958
        c-0.526,0-0.953-0.447-0.953-1.002C8.005,16.449,8.432,16,8.958,16h11.084c0.526,0,0.954,0.449,0.954,1.002
        C20.997,17.557,20.569,18.004,20.043,18.004z M22.914,13.98H9.057c-0.592,0-1.072-0.443-1.072-0.99c0-0.546,0.479-0.99,1.072-0.99
        h13.857c0.592,0,1.072,0.444,1.072,0.99C23.986,13.537,23.506,13.98,22.914,13.98z"></path>
   </g>
</svg>
