<svg version="1.1" viewBox="0 0 32 32" xmlns="http://www.w3.org/2000/svg" xmlns:xlink="http://www.w3.org/1999/xlink">
    <g id="notification-success">
        <path d="M16,30C8.268,30,2,23.732,2,16C2,8.269,8.268,2,16,2s14,6.269,14,14
        C30,23.732,23.732,30,16,30z M24.121,10.968L22.73,9.481c-0.384-0.41-1.007-0.41-1.391,0l-7.65,8.175l-3.211-3.424
        c-0.384-0.41-1.006-0.41-1.391,0l-1.391,1.486c-0.385,0.411-0.385,1.076,0,1.487l5.296,5.674c0.384,0.41,1.007,0.41,1.392,0
        l9.736-10.426C24.506,12.044,24.506,11.379,24.121,10.968z"></path>
   </g>
</svg>
