<svg version="1.1" viewBox="0 0 32 32" xmlns="http://www.w3.org/2000/svg" xmlns:xlink="http://www.w3.org/1999/xlink">
    <g id="notification-question">
        <path d="M16,30C8.268,30,2,23.732,2,16C2,8.269,8.268,2,16,2s14,6.269,14,14
        C30,23.732,23.732,30,16,30z M13.072,24.426c0.357,0.391,0.844,0.586,1.459,0.586c0.63,0,1.145-0.195,1.544-0.586
        c0.398-0.39,0.614-0.895,0.647-1.516c0.034-0.656-0.128-1.171-0.486-1.543c-0.359-0.372-0.854-0.559-1.484-0.559
        c-0.614,0-1.121,0.187-1.519,0.559s-0.614,0.887-0.649,1.543C12.552,23.531,12.715,24.036,13.072,24.426z M21.044,8.883
        c-3.055-3.154-7.708-1.565-9.534-0.758c-0.014,0.013-0.025,0.026-0.045,0.036c-0.506,0.246-0.539,0.593-0.323,1.147l0.675,1.314
        c0.012,0.014,0.026,0.024,0.036,0.045c0.256,0.525,0.611,0.541,1.185,0.294c0.742-0.354,1.898-0.801,3.104-0.85
        c2.026-0.082,3.069,1.266,1.465,2.847c-1.527,1.504-4.17,2.394-4.425,6.044l-0.004,0.004c0,0.331,0.265,0.6,0.592,0.6h2.366
        c0.327,0,0.592-0.269,0.592-0.6V18.82c0.125-0.693,0.615-1.763,2.299-2.887C21.877,14.028,22.985,10.887,21.044,8.883z"></path>
   </g>
</svg>
