<svg version="1.1" viewBox="0 0 32 32" xmlns="http://www.w3.org/2000/svg" xmlns:xlink="http://www.w3.org/1999/xlink">
    <g id="operator">
        <path d="M28.97,19.464c0.01,0.946,0.014,1.921,0.005,2.837 c-0.025,3.07-0.757,5.247-6.441,5.618C22.363,27.967,22.188,28,22.002,28h-0.097h-4.749h-0.154c-1.104,0-2-0.896-2-2s0.896-2,2-2h5
        c0.958,0,1.757,0.676,1.952,1.576c0.014,0.005,0.038,0.014,0.038,0.014c0.173-0.074,0.327-0.145,0.464-0.21
        c1.346-0.517,2.553-1.452,2.553-3.152c0-0.531-0.01-1.344-0.021-2.228h-0.144c-0.537,1.474-1.232,2.889-2.038,4.201
        c-0.545-0.95-1.685-1.267-2.556-1.362c1.138-1.775,2.073-3.799,2.556-5.887l-1.829,1.29C22.849,20.337,21.128,22,19.002,22
        c-1.793,0-3.292-1.188-3.8-2.813h-0.398C14.296,20.812,12.796,22,11.003,22c-2.126,0-3.847-1.663-3.975-3.758l-2.977-2.101
        c-0.093,0.385-0.1,0.833,0.011,1.297c0.265,1.108,1.069,1.865,1.815,1.731c1.555,4.096,4.58,7.676,7.222,8.958
        C13.512,28.396,14.556,29,15.576,29c0.663,0,3.084,0,5.309,0c-2.02,1.852-4.137,3-5.882,3c-3.628,0-8.875-4.892-11.449-10.968
        c-2.5-0.396-2.542-5.399-2.542-5.399c-0.083-0.708,0.33-1.355,0.998-1.729C2.034,8.822,3.996,4.974,7.026,2.626
        c0.227,2.117,0.977,5.265,3.319,7.021c-1.388,1.945-3.284,3.501-5.512,4.447c0,0.016,0.003,0.031,0.003,0.047l2.816,1.987
        c0.713-0.805,1.944-1.132,3.351-1.132c1.86,0,3.41,0.575,3.857,2.073h0.285c0.447-1.492,1.997-2.055,3.856-2.055
        c1.404,0,2.635,0.318,3.349,1.115l2.819-1.989c0.001-0.078,0.013-0.157,0.013-0.235c0-0.339-0.02-0.665-0.041-0.99
        c-0.539,0.044-1.085,0.071-1.641,0.071c-4.286,0-8.114-1.365-10.763-3.511c-0.175-0.154-0.289-0.25-0.289-0.25
        s-0.094-0.069-0.224-0.174c-0.33-0.298-0.646-0.604-0.931-0.926c-0.005,0.009-0.011,0.019-0.016,0.027
        C10.633,7.444,9.865,6.388,9.378,5C8.951,3.781,8.962,2.338,9.04,1.36C10.827,0.473,12.851,0,15.002,0
        c6.323,0,11.584,4.009,12.752,11h0.246C29.104,11,30,11.687,30,15C30,17.252,29.582,18.733,28.97,19.464z M11.003,16.981
        c-1.104,0-2-0.086-2,1.019s0.896,2,2,2c1.104,0,2-0.896,2-2S12.107,16.981,11.003,16.981z M19.002,16.99c-1.104,0-2-0.095-2,1.01
        s0.896,2,2,2s2-0.896,2-2S20.106,16.99,19.002,16.99z"></path>
    </g>
</svg>
