<svg version="1.1" viewBox="0 0 32 32" xmlns="http://www.w3.org/2000/svg" xmlns:xlink="http://www.w3.org/1999/xlink">
    <g id="reply">
        <path d="M30.008,24.902c0-3.602-0.908-14.912-13.002-14.912L15,9.985v-3
        c0-0.702-0.382-1.352-1.006-1.709s-1.396-0.369-2.031-0.032C11.187,5.658,8.475,7.15,6.159,9.034
        c-2.117,1.723-3.857,3.692-4.706,4.713C1.151,14.11,1,14.551,1,14.992c0,0.441,0.152,0.884,0.455,1.247
        c0.684,0.82,2.511,2.919,4.715,4.712c2.34,1.904,5.028,3.379,5.796,3.787c0.635,0.336,1.407,0.322,2.029-0.035
        C14.618,24.346,15,23.697,15,22.996v-3.02h2.105c8.769,0,11.596,3.244,12.479,4.967C30.053,25.857,30.008,24.99,30.008,24.902z"></path>
   </g>
</svg>
