<svg version="1.1" viewBox="0 0 32 32" xmlns="http://www.w3.org/2000/svg" xmlns:xlink="http://www.w3.org/1999/xlink">
    <g id="share">
        <path d="M27.438,16.841c0.021-0.276,0.043-0.552,0.043-0.833 c0-0.316-0.016-0.627-0.042-0.937l2.937-3.207c-0.688-2.338-1.938-4.436-3.6-6.142l-4.332,0.899
        c-0.486-0.328-0.996-0.623-1.532-0.875l-1.337-4.129c-1.15-0.28-2.346-0.445-3.583-0.445c-1.239,0-2.437,0.166-3.588,0.446
        l-1.375,4.148C10.484,6.026,9.967,6.33,9.475,6.666l-4.29-0.92c-1.654,1.706-2.898,3.799-3.582,6.132l2.934,3.247
        c-0.022,0.292-0.036,0.586-0.036,0.883c0,0.324,0.018,0.645,0.044,0.962l-2.938,3.207c0.686,2.328,1.929,4.416,3.581,6.119
        l4.351-0.903c0.499,0.336,1.021,0.638,1.572,0.894l1.343,4.145c1.136,0.273,2.317,0.434,3.538,0.434
        c1.248,0,2.453-0.168,3.612-0.452l1.384-4.175c0.541-0.261,1.061-0.559,1.551-0.896l4.287,0.919
        c1.651-1.713,2.89-3.812,3.566-6.151L27.438,16.841z M15.991,21.012c-2.765,0-5.006-2.24-5.006-5.003
        c0-2.764,2.241-5.004,5.006-5.004c2.765,0,5.005,2.24,5.005,5.004C20.996,18.771,18.756,21.012,15.991,21.012z"></path>
   </g>
</svg>
