<svg version="1.1" viewBox="0 0 32 32" xmlns="http://www.w3.org/2000/svg" xmlns:xlink="http://www.w3.org/1999/xlink">
    <g id="share">
        <path d="M23,14c-1.756,0-3.321-0.768-4.418-1.971l-3.087,1.358
        c-0.29-1.355-0.941-2.572-1.845-3.559l3.384-1.489C17.027,8.226,17,8.116,17,8c0-3.313,2.687-6,6-6s6,2.687,6,6S26.313,14,23,14z
         M8,21c-3.313,0-6-2.687-6-6s2.687-6,6-6s6,2.687,6,6S11.313,21,8,21z M15.203,17.61l2.947,1.823C19.194,18.552,20.526,18,22,18
        c3.313,0,6,2.687,6,6s-2.687,6-6,6s-6-2.687-6-6c0-0.385,0.044-0.759,0.113-1.123l-3.208-1.984
        C13.939,20.03,14.735,18.899,15.203,17.61z"></path>
   </g>
</svg>
