<svg version="1.1" viewBox="0 0 32 32" xmlns="http://www.w3.org/2000/svg" xmlns:xlink="http://www.w3.org/1999/xlink">
    <g id="templates">
        <path d="M26,1H7C5.896,1,5,1.896,5,3v26c0,0.473,0.178,0.895,0.452,1.236
        c0.187,0.222,0.409,0.354,0.67,0.359c0.39,0.008,0.853-0.207,1.376-0.535c0.014-0.009,0.029-0.014,0.044-0.021l8.958-5.203
        l8.959,5.204c0.015,0.008,0.029,0.012,0.043,0.021c0.523,0.328,0.986,0.543,1.377,0.535c0.25-0.006,0.461-0.131,0.643-0.333
        C27.812,29.917,28,29.485,28,29V3C28,1.896,27.104,1,26,1z M22.81,12.271l-2.48,2.503l0.498,3.364
        c0.021,0.27-0.104,0.532-0.33,0.693c-0.143,0.103-0.312,0.154-0.484,0.154c-0.102,0-0.203-0.019-0.301-0.055l-3.213-1.478
        l-3.212,1.478c-0.097,0.036-0.199,0.055-0.301,0.055c-0.173,0-0.343-0.052-0.485-0.154c-0.227-0.161-0.352-0.424-0.328-0.694
        l0.496-3.363l-2.479-2.503c-0.183-0.21-0.239-0.497-0.147-0.757s0.317-0.454,0.596-0.515l3.494-0.561l1.668-3.053
        c0.146-0.236,0.412-0.381,0.699-0.381s0.551,0.144,0.7,0.38l1.668,3.053L22.36,11c0.279,0.061,0.504,0.255,0.596,0.515
        S22.993,12.062,22.81,12.271z"></path>
   </g>
</svg>
