<svg version="1.1" viewBox="0 0 32 32" xmlns="http://www.w3.org/2000/svg" xmlns:xlink="http://www.w3.org/1999/xlink">
    <g id="transfer-friend">
        <path d="M29,6H3C1.343,6,0,7.343,0,9v15c0,1.657,1.343,3,3,3h5.958c1.959-1.32,3.362-3.697,3.362-7.606
        c0-0.98,0.072-1.772,1.017-2.033c0.349-0.1,0.546-0.147,1.019-0.255c0.447-0.146,0.566-0.29,0.397-0.678
        c-0.284-0.653-2.377-3.987-2.377-4.963V8.756C12.375,8.477,12.596,8,13.217,8c0.62,0,0.852,0.478,0.852,0.756v2.656
        c0,0.518,2.354,4.65,2.739,5.369c0.351,0.652,0.282,0.98-0.709,1.295c-0.256,0.081-0.632,0.191-1.058,0.303
        c-0.757,0.2-1.022,0.371-1.022,1.015c0,3.379-0.884,5.879-2.394,7.606H29c1.657,0,3-1.343,3-3V9C32,7.343,30.657,6,29,6z
         M5.504,9.007C6.329,9.007,7,9.679,7,10.503c0,0.83-0.671,1.499-1.496,1.499c-0.823,0-1.493-0.669-1.493-1.499
        C4.011,9.679,4.681,9.007,5.504,9.007z M8.12,23.005c-1.827,0-4.059-0.328-5.079-2.89c-0.172-0.432,0.05-0.916,0.495-1.084
        c0.445-0.166,0.947,0.049,1.119,0.48c0.535,1.342,1.441,1.817,3.465,1.817c0.478,0,0.865,0.375,0.865,0.838
        S8.598,23.005,8.12,23.005z"></path>
    </g>
</svg>
