<svg version="1.1" viewBox="0 0 32 32" xmlns="http://www.w3.org/2000/svg" xmlns:xlink="http://www.w3.org/1999/xlink">
    <g id="transaction">
        <path d="M27.004,1h-1.115c-0.183,0-0.357,0.071-0.488,0.198l-1.172,1.139l-1.172-1.139
        C22.926,1.071,22.751,1,22.568,1h-0.795c-0.182,0-0.357,0.071-0.487,0.198l-1.172,1.139l-1.172-1.139
        C18.812,1.071,18.637,1,18.455,1H17.66c-0.183,0-0.357,0.071-0.488,0.198L16,2.337l-1.172-1.139C14.697,1.071,14.522,1,14.34,1
        h-0.795c-0.182,0-0.357,0.071-0.487,0.198l-1.172,1.139l-1.172-1.139C10.584,1.071,10.408,1,10.227,1H9.432
        C9.249,1,9.074,1.071,8.943,1.198L7.771,2.337L6.6,1.198C6.469,1.071,6.294,1,6.112,1H4.996C4.447,1,4,1.449,4,2v28
        c0,0.551,0.449,1,1,1h1.112c0.182,0,0.357-0.071,0.488-0.198l1.172-1.139l1.172,1.139C9.074,30.929,9.249,31,9.432,31h0.795
        c0.182,0,0.357-0.071,0.487-0.198l1.172-1.139l1.172,1.139C13.188,30.929,13.363,31,13.545,31h0.795
        c0.183,0,0.357-0.071,0.488-0.198L16,29.663l1.172,1.139C17.303,30.929,17.478,31,17.66,31h0.795c0.182,0,0.357-0.071,0.488-0.198
        l1.171-1.14l1.172,1.14C21.416,30.929,21.592,31,21.773,31h0.795c0.183,0,0.357-0.071,0.488-0.198l1.172-1.14l1.172,1.14
        C25.531,30.929,25.706,31,25.889,31H27c0.551,0,1-0.449,1-1V2C28,1.449,27.553,1,27.004,1z M17,25H9c-0.552,0-1-0.447-1-1
        s0.448-1,1-1h8c0.553,0,1,0.447,1,1S17.553,25,17,25z M8,19c0-0.553,0.448-1,1-1h5c0.553,0,1,0.447,1,1s-0.447,1-1,1H9
        C8.448,20,8,19.553,8,19z M17,15H9c-0.552,0-1-0.448-1-1s0.448-1,1-1h8c0.553,0,1,0.448,1,1S17.553,15,17,15z M19,9h-6
        c-0.553,0-1-0.448-1-1s0.447-1,1-1h6c0.553,0,1,0.448,1,1S19.553,9,19,9z M23,25h-1c-0.553,0-1-0.447-1-1s0.447-1,1-1h1
        c0.553,0,1,0.447,1,1S23.553,25,23,25z M23,20h-1c-0.553,0-1-0.447-1-1s0.447-1,1-1h1c0.553,0,1,0.447,1,1S23.553,20,23,20z
         M23,15h-1c-0.553,0-1-0.448-1-1s0.447-1,1-1h1c0.553,0,1,0.448,1,1S23.553,15,23,15z"></path>
   </g>
</svg>
