<svg version="1.1" viewBox="0 0 32 32" xmlns="http://www.w3.org/2000/svg" xmlns:xlink="http://www.w3.org/1999/xlink">
    <g id="transaction-on-card">
        <path d="M14.865,28.41l-0.437-0.437l-0.731,0.833c-0.119,0.137-0.28,0.213-0.447,0.213
        h-0.729c-0.167,0-0.328-0.076-0.447-0.213L11,27.583l-1.074,1.224c-0.119,0.137-0.28,0.213-0.447,0.213H8.75
        c-0.167,0-0.327-0.076-0.447-0.213l-1.074-1.223l-1.074,1.223c-0.119,0.137-0.28,0.213-0.447,0.213H4.979
        c-0.167,0-0.327-0.076-0.447-0.213l-1.074-1.224l-1.074,1.224c-0.119,0.137-0.28,0.213-0.447,0.213H0.917
        C0.411,29.02,0,28.538,0,27.945V1.094C0,0.502,0.409,0.02,0.913,0.02h1.022c0.167,0,0.328,0.076,0.447,0.213l1.074,1.223
        l1.074-1.223c0.12-0.137,0.28-0.213,0.447-0.213h0.729c0.167,0,0.328,0.076,0.447,0.213l1.074,1.223l1.074-1.223
        C8.423,0.096,8.583,0.02,8.75,0.02h0.729c0.167,0,0.328,0.076,0.447,0.213L11,1.455l1.074-1.223c0.119-0.137,0.28-0.213,0.447-0.213
        h0.729c0.167,0,0.327,0.076,0.447,0.213l1.074,1.223l1.074-1.223c0.119-0.137,0.28-0.213,0.447-0.213h0.729
        c0.167,0,0.327,0.076,0.447,0.213l1.074,1.223l1.074-1.223c0.119-0.137,0.28-0.213,0.447-0.213h1.022C21.591,0.02,22,0.502,22,1.094
        v11.078l0.682-0.682c0.651-0.65,1.706-0.65,2.357,0l3.373,3.371L14.865,28.41z M18.997,3.668c-0.285,0.141-0.587,0.211-0.889,0.211
        c-0.606,0-1.213-0.283-1.675-0.848l-0.103-0.124l-0.102,0.124c-0.463,0.564-1.069,0.848-1.675,0.848
        c-0.606,0-1.213-0.283-1.676-0.848l-0.102-0.124l-0.102,0.124C12.213,3.596,11.606,3.879,11,3.879S9.787,3.596,9.325,3.031
        L9.223,2.907L9.121,3.031C8.658,3.596,8.052,3.879,7.446,3.879c-0.606,0-1.213-0.283-1.676-0.848L5.669,2.907L5.567,3.031
        C5.104,3.596,4.498,3.879,3.892,3.879c-0.302,0-0.604-0.07-0.889-0.211v21.646c0.284-0.141,0.587-0.211,0.889-0.211
        c0.606,0,1.213,0.282,1.676,0.848l0.102,0.123l0.102-0.123c0.462-0.565,1.069-0.848,1.676-0.848c0.605,0,1.213,0.282,1.675,0.848
        l0.102,0.123l0.103-0.123c0.462-0.565,1.068-0.848,1.675-0.848c0.236,0,0.471,0.057,0.698,0.143l-0.211-0.211
        c-0.65-0.65-0.65-1.705,0-2.355l7.51-7.505V3.668z M5,15.02c0-0.552,0.447-1,1-1h7c0.553,0,1,0.448,1,1c0,0.553-0.447,1-1,1H6
        C5.447,16.02,5,15.572,5,15.02z M7,7.02c0-0.552,0.447-1,1-1h6c0.553,0,1,0.448,1,1c0,0.553-0.447,1-1,1H8
        C7.447,8.02,7,7.572,7,7.02z M15,10.02h1c0.553,0,1,0.448,1,1c0,0.553-0.447,1-1,1h-1c-0.553,0-1-0.447-1-1
        C14,10.468,14.447,10.02,15,10.02z M12,11.02c0,0.553-0.447,1-1,1H6c-0.553,0-1-0.447-1-1c0-0.552,0.447-1,1-1h5
        C11.553,10.02,12,10.468,12,11.02z M6,18.02h3c0.553,0,1,0.448,1,1c0,0.553-0.447,1-1,1H6c-0.553,0-1-0.447-1-1
        C5,18.468,5.447,18.02,6,18.02z M30.154,16.603l1.365,1.365c0.651,0.65,0.651,1.705,0,2.355L20.325,31.512
        c-0.65,0.65-1.706,0.65-2.356,0l-1.361-1.36L30.154,16.603z"></path>
   </g>
</svg>
