<svg version="1.1" viewBox="0 0 32 32" xmlns="http://www.w3.org/2000/svg" xmlns:xlink="http://www.w3.org/1999/xlink">
    <g id="tv">
        <path d="M29,4H3C1.343,4,0,5.343,0,7v15c0,1.657,1.343,3,3,3h7.009v2H9
        c-0.552,0-1,0.448-1,1v1c0,0.553,0.448,1,1,1h14c0.553,0,1-0.447,1-1v-1c0-0.552-0.447-1-1-1h-1.01v-2H29c1.656,0,3-1.343,3-3V7
        C32,5.343,30.656,4,29,4z M9.692,20h-1c-0.552,0-0.928-0.447-0.838-1l0.971-6H6.663c-0.552,0-0.928-0.447-0.838-1l0.162-1
        c0.089-0.553,0.609-1,1.162-1h7c0.552,0,0.928,0.447,0.839,1l-0.162,1c-0.09,0.553-0.609,1-1.162,1h-1.837l-0.971,6
        C10.765,19.553,10.245,20,9.692,20z M26.267,11l-4.141,8c-0.285,0.553-0.965,1-1.518,1h-0.845h-0.155h-0.845
        c-0.553,0-1.088-0.447-1.195-1l-1.549-8c-0.107-0.553,0.254-1,0.806-1h0.999c0.553,0,1.088,0.447,1.195,1l1.156,5.972L23.266,11
        c0.286-0.553,0.966-1,1.518-1h1C26.335,10,26.552,10.447,26.267,11z"></path>
   </g>
</svg>
