<svg version="1.1" viewBox="0 0 32 32" xmlns="http://www.w3.org/2000/svg" xmlns:xlink="http://www.w3.org/1999/xlink">
    <g id="chevron">
        <path d="M16,2C8.268,2,2,8.269,2,16c0,7.732,6.268,14,14,14c7.732,0,14-6.268,14-14
        C30,8.269,23.732,2,16,2z M21.834,16.355l-1.908,1.783c0,0,0,0-0.001,0l-6.105,5.705c-0.21,0.197-0.552,0.197-0.763,0
        l-1.908-1.782c-0.211-0.197-0.211-0.517,0-0.714l5.725-5.349l-5.725-5.349c-0.211-0.197-0.211-0.516,0-0.713l1.908-1.783
        c0.211-0.197,0.553-0.197,0.763,0l6.105,5.705c0.001,0,0.001,0,0.001,0l1.908,1.783C22.045,15.84,22.045,16.159,21.834,16.355z"></path>
   </g>
</svg>
