<svg version="1.1" viewBox="0 0 32 32" xmlns="http://www.w3.org/2000/svg" xmlns:xlink="http://www.w3.org/1999/xlink">
    <g id="user">
        <path d="M16,21.18c3.088,0,8.076-5.493,8.076-10.789S20.461,2,16,2
        c-4.46,0-8.076,3.094-8.076,8.391S12.912,21.18,16,21.18z M10.66,10.055c0.287-0.16,0.56-0.337,0.82-0.528
        c1.281,1.726,4.534,2.468,4.534,2.468c-1.181-1.111-1.397-2.554-1.428-3.569c1.64,1.255,4.012,2.061,6.695,2.061
        c0.033,0,0.063-0.007,0.097-0.007c0.001,0.04,0.01,0.074,0.01,0.114c0,3.452-3.327,7.485-5.388,7.485
        c-2.06,0-5.388-4.033-5.388-7.485C10.612,10.404,10.646,10.235,10.66,10.055z M20.557,20.622c-1.499,1.62-2.02,2.418-4.557,2.418
        c-2.542,0-3.064-0.801-4.565-2.427C7.816,21.448,5,23.731,5,27.005C5,30.999,9.925,31,16,31c6.074,0,11-0.001,11-3.995
        C27,23.741,24.174,21.462,20.557,20.622z"></path>
   </g>
</svg>
