<svg version="1.1" viewBox="0 0 32 32" xmlns="http://www.w3.org/2000/svg" xmlns:xlink="http://www.w3.org/1999/xlink">
    <g id="tokyo">
        <path id="Tokyo_1" d="M20.654,6.925c0.31-0.354,0.506-0.809,0.51-1.292c0.002-0.013,0-0.913,0-0.913
	c0-0.125-0.101-0.225-0.225-0.225s-0.225,0.1-0.225,0.225v0.605c-1.748-0.325-3.972-1.012-4.416-1.729h0.594
	c0.124,0,0.225-0.101,0.225-0.225c0-0.125-0.101-0.225-0.225-0.225h-0.674V2.248h0.674c0.124,0,0.225-0.101,0.225-0.225
	c0-0.125-0.101-0.225-0.225-0.225h-0.674V0.225C16.217,0.1,16.116,0,15.993,0c-0.125,0-0.225,0.1-0.225,0.225v1.574h-0.674
	c-0.125,0-0.225,0.1-0.225,0.225c0,0.124,0.1,0.225,0.225,0.225h0.674v0.899h-0.674c-0.125,0-0.225,0.1-0.225,0.225
	c0,0.124,0.1,0.225,0.225,0.225h0.594C15.243,4.314,13.019,5,11.271,5.326V4.721c0-0.125-0.101-0.225-0.225-0.225
	s-0.225,0.1-0.225,0.225c0,0,0,0.885,0,0.899c0,0.49,0.195,0.952,0.508,1.311c-4.851,1.878-8.3,6.592-8.3,12.098
	C3.03,26.182,8.848,32,16,32c7.152,0,12.97-5.818,12.97-12.97C28.97,13.517,25.513,8.8,20.654,6.925z M28.521,19.03
	c0,3.015-1.071,5.785-2.853,7.949H25.21V25.58c0.508-0.108,0.892-0.56,0.892-1.1c0-0.62-0.504-1.124-1.124-1.124
	c-0.62,0-1.124,0.504-1.124,1.124c0,0.545,0.391,1,0.907,1.102v1.396h-1.799v-1.574c0-0.125-0.101-0.225-0.225-0.225h-2.023v-1.349
	h1.116c1.06,0,2-0.915,2.031-1.97c0.004-0.018,0-0.953,0-0.953c0-0.125-0.101-0.225-0.225-0.225s-0.225,0.1-0.225,0.225v0.674
	h-1.798v-1.574c0-0.125-0.101-0.225-0.225-0.225h-1.124v-1.349h0.667c1.06,0,2-0.915,2.031-1.97c0.004-0.018,0-0.953,0-0.953
	c0-0.125-0.101-0.225-0.225-0.225c-0.125,0-0.225,0.1-0.225,0.225v0.674h-2.248v-1.574c0-0.125-0.101-0.225-0.225-0.225h-0.674
	V13.04h0.667c1.06,0,2-0.915,2.031-1.97c0.004-0.018,0-0.953,0-0.953c0-0.125-0.101-0.225-0.225-0.225
	c-0.125,0-0.225,0.1-0.225,0.225v0.675h-2.698V9.218c0-0.125-0.101-0.225-0.225-0.225h-0.674V7.644h1.116
	c0.415,0,0.812-0.143,1.143-0.377C25.079,9.019,28.521,13.627,28.521,19.03z M24.978,25.154c-0.372,0-0.675-0.303-0.675-0.674
	c0-0.373,0.303-0.674,0.675-0.674s0.674,0.302,0.674,0.674C25.652,24.852,25.35,25.154,24.978,25.154z M22.512,25.629v1.349h-0.899
	v-1.349H22.512z M17.566,25.18v-1.349h2.698v1.349H17.566z M19.814,25.629v1.349h-0.899v-1.349H19.814z M14.869,25.18v-1.349h2.248
	v1.349H14.869z M17.117,25.629v1.349h-0.899v-1.349H17.117z M15.768,25.629v1.349h-0.899v-1.349H15.768z M10.139,23.381
	c-0.811,0-1.437-0.673-1.554-1.349h14.798c-0.117,0.676-0.743,1.349-1.554,1.349H10.139z M11.271,25.18v-1.349h3.147v1.349H11.271z
	 M14.419,25.629v1.349H13.52v-1.349H14.419z M13.07,25.629v1.349H12.17v-1.349H13.07z M11.721,25.629v1.349h-0.899v-1.349H11.721z
	 M21.585,11.241c-0.117,0.676-0.744,1.349-1.554,1.349h-8.093c-0.811,0-1.437-0.673-1.554-1.349H21.585z M13.52,10.792V9.442h0.899
	v1.349H13.52z M17.566,8.993h-3.147V7.644h3.147V8.993z M18.465,9.442v1.349h-0.899V9.442H18.465z M17.117,9.442v1.349h-0.899V9.442
	H17.117z M15.768,9.442v1.349h-0.899V9.442H15.768z M18.915,14.389h-1.349V13.04h1.349V14.389z M19.814,14.838v1.349h-0.899v-1.349
	H19.814z M18.465,14.838v1.349h-0.899v-1.349H18.465z M14.869,14.389V13.04h2.248v1.349H14.869z M17.117,14.838v1.349h-0.899v-1.349
	H17.117z M15.768,14.838v1.349h-0.899v-1.349H15.768z M13.07,14.389V13.04h1.349v1.349H13.07z M14.419,14.838v1.349H13.52v-1.349
	H14.419z M22.485,16.637c-0.118,0.676-0.744,1.349-1.554,1.349h-9.892c-0.811,0-1.437-0.673-1.554-1.349H22.485z M12.17,16.187
	v-1.349h0.899v1.349H12.17z M20.264,20.234h0.899v1.349h-0.899V20.234z M17.566,19.784v-1.349h2.248v1.349H17.566z M19.814,20.234
	v1.349h-0.899v-1.349H19.814z M18.465,20.234v1.349h-0.899v-1.349H18.465z M14.869,19.784v-1.349h2.248v1.349H14.869z
	 M17.117,20.234v1.349h-0.899v-1.349H17.117z M15.768,20.234v1.349h-0.899v-1.349H15.768z M11.721,19.784v-1.349h2.698v1.349H11.721
	z M14.419,20.234v1.349H13.52v-1.349H14.419z M13.07,20.234v1.349H12.17v-1.349H13.07z M10.822,21.583v-1.349h0.899v1.349H10.822z
	 M17.566,25.629h0.899v1.349h-0.899V25.629z M20.264,25.629h0.899v1.349h-0.899V25.629z M13.586,5.213
	c1.25-0.39,2.045-0.809,2.406-1.269c0.36,0.46,1.156,0.879,2.406,1.269c0.211,0.066,0.423,0.126,0.629,0.183h-6.07
	C13.164,5.339,13.375,5.279,13.586,5.213z M20.686,5.845c-0.117,0.676-0.743,1.349-1.554,1.349h-6.295
	c-0.811,0-1.437-0.673-1.554-1.349H20.686z M11.708,7.274c0.327,0.231,0.717,0.37,1.129,0.37h1.132v1.349h-0.674
	c-0.125,0-0.225,0.1-0.225,0.225v1.574h-2.698v-0.675c0-0.125-0.101-0.225-0.225-0.225c-0.125,0-0.225,0.1-0.225,0.225
	c0,0,0,0.885,0,0.899c0,1.078,0.938,2.023,2.016,2.023h0.682v1.349h-0.674c-0.125,0-0.225,0.1-0.225,0.225v1.574H9.473v-0.674
	c0-0.125-0.101-0.225-0.225-0.225c-0.125,0-0.225,0.1-0.225,0.225c0,0,0,0.885,0,0.899c0,1.077,0.938,2.023,2.016,2.023h0.233v1.349
	h-0.675c-0.124,0-0.225,0.1-0.225,0.225v1.574H8.573v-0.674c0-0.125-0.101-0.225-0.225-0.225s-0.225,0.1-0.225,0.225
	c0,0,0,0.885,0,0.899c0,1.078,0.938,2.023,2.015,2.023h0.683v1.349H9.248c-0.125,0-0.225,0.1-0.225,0.225v1.574H7.225V25.58
	c0.508-0.108,0.891-0.56,0.891-1.1c0-0.62-0.504-1.124-1.124-1.124c-0.62,0-1.124,0.504-1.124,1.124c0,0.545,0.391,1,0.907,1.102
	v1.396H6.333c-1.782-2.164-2.854-4.934-2.854-7.949C3.479,13.634,6.913,9.031,11.708,7.274z M10.372,25.629v1.349H9.473v-1.349
	H10.372z M6.992,25.154c-0.372,0-0.674-0.303-0.674-0.674c0-0.373,0.303-0.674,0.674-0.674c0.372,0,0.675,0.302,0.675,0.674
	C7.667,24.852,7.364,25.154,6.992,25.154z M13.07,31.201c-0.304-0.073-0.604-0.156-0.899-0.251v-1.723h0.899V31.201z M11.721,30.797
	c-0.306-0.111-0.605-0.238-0.899-0.372v-1.199h0.899V30.797z M10.372,30.209c-0.568-0.287-1.11-0.616-1.625-0.983h1.625V30.209z
	 M13.52,31.303v-0.727h4.946v0.729c-0.797,0.16-1.622,0.245-2.465,0.245C15.151,31.55,14.321,31.465,13.52,31.303z M21.164,30.433
	c-0.295,0.133-0.594,0.258-0.899,0.37v-1.576h0.899V30.433z M19.814,30.955c-0.295,0.094-0.595,0.176-0.899,0.25v-1.978h0.899
	V30.955z M18.465,30.126H13.52v-0.899h4.946V30.126z M21.613,30.217v-0.991h1.639C22.734,29.596,22.186,29.928,21.613,30.217z
	 M23.847,28.777H8.153c-0.511-0.413-0.991-0.862-1.432-1.349h18.557C24.838,27.915,24.358,28.364,23.847,28.777z"></path>
    </g>
</svg>
