<svg version="1.1" viewBox="0 0 32 32" xmlns="http://www.w3.org/2000/svg" xmlns:xlink="http://www.w3.org/1999/xlink">
    <g id="twitter">
        <path d="M16,0C7.164,0,0,7.164,0,16c0,8.837,7.164,16,16,16c8.837,0,16-7.163,16-16C32,7.164,24.837,0,16,0z M22.373,13.511c0.006,0.14,0.009,0.283,0.009,0.425c0,4.346-3.306,9.355-9.355,9.355c-1.856,0-3.585-0.544-5.04-1.477c0.257,0.031,0.52,0.045,0.784,0.045c1.54,0,2.958-0.525,4.084-1.408c-1.439-0.025-2.653-0.977-3.071-2.282c0.2,0.039,0.406,0.059,0.618,0.059c0.301,0,0.591-0.039,0.866-0.116c-1.505-0.301-2.639-1.63-2.639-3.224v-0.041c0.445,0.245,0.952,0.394,1.49,0.411c-0.882-0.59-1.462-1.597-1.462-2.737c0-0.603,0.161-1.167,0.444-1.655c1.623,1.991,4.046,3.299,6.778,3.436c-0.058-0.24-0.085-0.491-0.085-0.749c0-1.815,1.472-3.288,3.287-3.288c0.946,0,1.802,0.399,2.399,1.038c0.751-0.147,1.454-0.42,2.09-0.797c-0.244,0.768-0.767,1.411-1.446,1.818c0.665-0.08,1.299-0.256,1.889-0.518C23.575,12.468,23.016,13.047,22.373,13.511z"></path>
    </g>
</svg>
