<svg version="1.1" viewBox="0 0 32 32" xmlns="http://www.w3.org/2000/svg" xmlns:xlink="http://www.w3.org/1999/xlink">
    <g id="wordpress">
<path d="M16,0C7.162,0,0,7.163,0,16s7.162,16,16,16c8.837,0,16-7.164,16-16S24.837,0,16,0z M8,16
	c0-1.161,0.249-2.261,0.693-3.257l3.816,10.456C9.841,21.904,8,19.166,8,16z M16.001,24.001c-0.787,0-1.544-0.114-2.26-0.325
	l2.401-6.976l2.458,6.737c0.016,0.039,0.036,0.075,0.057,0.109C17.826,23.84,16.933,24.001,16.001,24.001z M17.104,12.249
	c0.482-0.025,0.915-0.076,0.915-0.076c0.431-0.053,0.38-0.685-0.05-0.66c0,0-1.297,0.103-2.133,0.103
	c-0.786,0-2.107-0.103-2.107-0.103c-0.431-0.024-0.482,0.634-0.051,0.66c0,0,0.408,0.05,0.839,0.076l1.247,3.415l-1.751,5.25
	l-2.914-8.665c0.482-0.025,0.915-0.076,0.915-0.076c0.432-0.053,0.38-0.685-0.05-0.66c0,0-1.295,0.103-2.132,0.103
	c-0.15,0-0.326-0.005-0.515-0.01c1.43-2.172,3.888-3.607,6.685-3.607c2.083,0,3.979,0.797,5.402,2.101
	c-0.035-0.002-0.069-0.007-0.103-0.007c-0.787,0-1.343,0.685-1.343,1.42c0,0.66,0.38,1.217,0.785,1.876
	c0.304,0.532,0.66,1.217,0.66,2.207c0,0.686-0.204,1.546-0.608,2.586l-0.798,2.666L17.104,12.249z M20.024,22.915l2.443-7.064
	c0.457-1.142,0.609-2.054,0.609-2.865c0-0.295-0.02-0.568-0.055-0.824C23.646,13.302,24,14.608,24,16
	C24,18.952,22.401,21.528,20.024,22.915z"></path>
    </g>
</svg>
